<svg width="134" height="26" viewBox="0 0 134 26" fill="none" xmlns="http://www.w3.org/2000/svg">
<path d="M0 25.2209V6.47816C0.248978 6.44762 0.56853 6.4321 0.958393 6.4321C1.14545 6.4321 1.52692 6.46315 2.10385 6.52422L2.43101 7.93057H2.87492C3.80996 6.7778 5.31353 6.20154 7.38616 6.20154H7.45647C9.59128 6.20154 11.2507 6.90847 12.4352 8.32233C13.5571 6.90847 15.4272 6.20154 18.045 6.20154C21.8785 6.20154 23.7951 8.54539 23.7951 13.2328V25.2209C23.4364 25.2825 23.0547 25.313 22.6499 25.313C22.1976 25.313 21.8082 25.2825 21.4811 25.2209V14.4086C21.4811 10.3513 20.2574 8.32233 17.8112 8.32233C16.019 8.32233 14.4063 8.86832 12.9728 9.95925C13.2842 10.8354 13.4403 12.0034 13.4403 13.4634V25.2209C13.0817 25.2825 12.7 25.313 12.2949 25.313C11.8428 25.313 11.4611 25.2825 11.1497 25.2209V14.4086C11.1497 10.3513 9.8093 8.32233 7.12905 8.32233C5.27444 8.32233 3.98128 8.69935 3.24904 9.45208C2.60994 10.1132 2.29065 11.2735 2.29065 12.9332V25.2209C1.932 25.2825 1.55027 25.313 1.14545 25.313C0.69315 25.313 0.311419 25.2825 0 25.2209Z" fill="#2450F5"/>
<path d="M27.111 14.8236H37.8401V12.5644C37.8401 11.0887 37.536 10.0513 36.9284 9.45203C36.1956 8.6993 34.7466 8.32229 32.5806 8.32229C30.3052 8.32229 28.8173 8.79142 28.1161 9.72865C27.4457 10.574 27.111 12.2725 27.111 14.8236ZM24.8203 18.6504V14.547C24.8203 11.4271 25.35 9.26754 26.4097 8.06871C27.516 6.82382 29.5338 6.20151 32.4636 6.20151H32.5806C35.6814 6.20151 37.754 6.80882 38.7982 8.02265C39.6866 9.06804 40.1383 10.9122 40.1541 13.5557V16.9674H27.111V18.9963C27.111 21.947 29.1054 23.4224 33.0948 23.4224H33.1649C35.7205 23.4224 37.7149 23.2151 39.149 22.8001C39.398 23.4918 39.5538 24.1912 39.6165 24.8981C38.0269 25.3282 35.9776 25.5435 33.4687 25.5435H33.2116C27.6173 25.5435 24.8203 23.2462 24.8203 18.6504Z" fill="#2450F5"/>
<path d="M43.4625 18.0511C43.4625 19.7571 43.6882 20.9482 44.1405 21.6245C44.9037 22.8231 46.4697 23.4227 48.8388 23.4227C51.1761 23.4227 52.7188 22.8231 53.4668 21.6245C53.9186 20.9329 54.1447 19.7418 54.1447 18.0511V12.9331C54.1447 9.85955 52.1888 8.32226 48.2779 8.32226H48.2075C46.1349 8.32226 44.7481 8.9218 44.0471 10.1206C43.6572 10.812 43.4625 12.0189 43.4625 13.7399V18.0511ZM41.1719 18.0971V13.6938C41.1719 11.0506 41.4757 9.27553 42.0836 8.36858C43.0338 6.92418 45.1065 6.20147 48.3009 6.20147H48.418C51.2071 6.20147 52.9911 6.79325 53.7706 7.97655H54.1447V0.0921631C54.5031 0.030838 54.8846 4.3869e-05 55.2902 4.3869e-05C55.7417 4.3869e-05 56.1234 0.030838 56.4354 0.0921631V25.2208C56.1234 25.2824 55.7417 25.3129 55.2902 25.3129C54.8694 25.3129 54.4871 25.2824 54.1447 25.2208V23.5608C53.0848 24.8828 51.3165 25.5435 48.8388 25.5435C45.4882 25.5435 43.2831 24.8213 42.2237 23.3766C41.5224 22.4391 41.1719 20.679 41.1719 18.0971Z" fill="#2450F5"/>
<path d="M58.9336 25.2209C59.245 25.2825 59.6113 25.313 60.0321 25.313C60.4839 25.313 60.8813 25.2825 61.2242 25.2209V6.52424C60.8656 6.46317 60.4684 6.43212 60.0321 6.43212C59.6113 6.43212 59.245 6.46317 58.9336 6.52424V25.2209ZM58.9336 3.59638V0.622459C59.245 0.561392 59.6113 0.530342 60.0321 0.530342C60.4684 0.530342 60.8656 0.561392 61.2242 0.622459V3.59638C60.8656 3.65796 60.4839 3.68876 60.079 3.68876C59.6267 3.68876 59.245 3.65796 58.9336 3.59638Z" fill="#2450F5"/>
<path d="M74.9295 13.9815C74.9295 13.5727 74.9129 13.1398 74.8814 12.6831C74.8492 12.2271 74.7379 11.8095 74.5464 11.432C74.3552 11.0542 74.0437 10.7473 73.6129 10.5113C73.1821 10.275 72.5837 10.1571 71.8179 10.1571C71.0198 10.1571 70.3652 10.2515 69.8549 10.4404C69.3441 10.6293 68.9372 10.8653 68.6344 11.1486C68.3309 11.432 68.1152 11.7624 67.9882 12.1402C67.8602 12.5177 67.7967 12.8955 67.7967 13.2733V18.0891C67.7967 18.4984 67.8122 18.9316 67.8445 19.3875C67.876 19.844 68.004 20.2611 68.2275 20.6389C68.4505 21.0164 68.8094 21.3313 69.3048 21.5828C69.7988 21.8354 70.4932 21.9606 71.3868 21.9606C72.2799 21.9606 72.9668 21.8354 73.4456 21.5828C73.9241 21.3313 74.2749 21.0164 74.4984 20.6389C74.7214 20.2611 74.8492 19.844 74.8814 19.3875C74.9129 18.9316 74.9295 18.4984 74.9295 18.0891V13.9815ZM68.2275 8.17418C68.5148 7.70195 68.8737 7.34046 69.3048 7.08817C69.7353 6.83666 70.1663 6.63974 70.5969 6.49794C71.0279 6.3564 71.4183 6.26997 71.7699 6.23841C72.1206 6.20735 72.3599 6.19131 72.4879 6.19131C74.1794 6.19131 75.4799 6.39625 76.3892 6.80483C77.2988 7.21444 77.9691 7.7656 78.4002 8.45727C78.8307 9.15022 79.0779 9.96816 79.1421 10.9126C79.2056 11.8568 79.2379 12.8647 79.2379 13.9342V17.7586C79.2379 18.8607 79.1975 19.8833 79.118 20.8275C79.038 21.7717 78.783 22.5907 78.3522 23.2826C77.9211 23.9753 77.2513 24.5265 76.3417 24.9351C75.4321 25.3439 74.1471 25.5488 72.4879 25.5488C72.3922 25.5488 72.1448 25.5408 71.746 25.5253C71.3467 25.5092 70.9002 25.4308 70.4056 25.2893C69.9103 25.1475 69.416 24.9431 68.9217 24.6755C68.4264 24.4085 68.0517 24.0071 67.7967 23.4715V25.0769C67.2857 25.2029 66.8549 25.2738 66.5041 25.2893C66.1525 25.3056 65.8818 25.3128 65.6903 25.3128C65.4667 25.3128 65.171 25.3056 64.8045 25.2893C64.4375 25.2738 63.9983 25.2029 63.4883 25.0769V0.242178C63.9983 0.11668 64.4375 0.0460377 64.8045 0.0297356C65.171 0.0142117 65.451 0.00619125 65.6425 0.00619125C65.8652 0.00619125 66.1525 0.0142117 66.5041 0.0297356C66.8549 0.0460377 67.2857 0.11668 67.7967 0.242178V8.17418H68.2275Z" fill="#2450F5"/>
<path d="M91.7748 23.8493C91.1683 24.5738 90.4583 25.0378 89.6448 25.2422C88.8309 25.4464 88.0089 25.5488 87.1791 25.5488C85.966 25.5488 84.9294 25.3602 84.0678 24.9824C83.2062 24.6046 82.5036 24.0853 81.9616 23.4242C81.4183 22.7633 81.0279 21.9844 80.7886 21.0873C80.5493 20.1902 80.4297 19.2222 80.4297 18.1835V6.61617C80.9397 6.52172 81.3786 6.46712 81.7459 6.45082C82.1125 6.43529 82.4081 6.42727 82.6314 6.42727C82.7909 6.42727 83.0459 6.43529 83.3975 6.45082C83.7483 6.46712 84.1948 6.52172 84.7381 6.61617V17.806C84.7381 18.3098 84.7536 18.8056 84.7856 19.2933C84.8171 19.7813 84.937 20.2217 85.1448 20.6151C85.352 21.0089 85.6871 21.3316 86.1501 21.5828C86.6124 21.8354 87.2586 21.9606 88.0887 21.9606C89.5251 21.9606 90.5137 21.7246 91.057 21.2526C91.5991 20.7804 91.8706 20.0251 91.8706 18.9862V6.61617C92.3809 6.52172 92.8198 6.46712 93.1871 6.45082C93.5536 6.43529 93.849 6.42727 94.0728 6.42727C94.2321 6.42727 94.4871 6.43529 94.8387 6.45082C95.1894 6.46712 95.636 6.52172 96.179 6.61617V25.0769C95.636 25.2029 95.2133 25.2738 94.9105 25.2893C94.6067 25.3056 94.3601 25.3128 94.1683 25.3128C94.0086 25.3128 93.8249 25.3056 93.6179 25.2893C93.4099 25.2738 93.0355 25.2029 92.4929 25.0769L92.2536 23.8493H91.7748Z" fill="#2450F5"/>
<path d="M98.8164 0.242331C99.3587 0.11709 99.7737 0.0461903 100.061 0.0298882C100.348 0.0143623 100.588 0.00634003 100.779 0.00634003C100.939 0.00634003 101.234 0.0143623 101.665 0.0298882C102.096 0.0461903 102.582 0.11709 103.125 0.242331V25.077C102.582 25.203 102.096 25.2739 101.665 25.2894C101.234 25.3057 100.939 25.313 100.779 25.313C100.588 25.313 100.348 25.3057 100.061 25.2894C99.7737 25.2739 99.3587 25.203 98.8164 25.077V0.242331Z" fill="#2450F5"/>
<path d="M116.787 24.3005C116.18 25.025 115.47 25.4889 114.656 25.6934C113.843 25.8975 113.021 26 112.191 26C110.978 26 109.941 25.8114 109.08 25.4336C108.218 25.0558 107.516 24.5365 106.973 23.8753C106.43 23.2145 106.04 22.4356 105.8 21.5385C105.561 20.6413 105.441 19.6733 105.441 18.6347V7.06734C105.951 6.97289 106.391 6.91829 106.758 6.90199C107.124 6.88647 107.42 6.87844 107.643 6.87844C107.803 6.87844 108.058 6.88647 108.409 6.90199C108.76 6.91829 109.207 6.97289 109.75 7.06734V18.2571C109.75 18.7609 109.765 19.2567 109.798 19.7445C109.829 20.2325 109.949 20.6729 110.157 21.0662C110.364 21.4601 110.699 21.7827 111.162 22.034C111.624 22.2865 112.27 22.4118 113.101 22.4118C114.537 22.4118 115.526 22.1758 116.069 21.7038C116.611 21.2316 116.883 20.4763 116.883 19.4373V7.06734C117.393 6.97289 117.832 6.91829 118.199 6.90199C118.565 6.88647 118.861 6.87844 119.085 6.87844C119.244 6.87844 119.499 6.88647 119.851 6.90199C120.201 6.91829 120.648 6.97289 121.191 7.06734V25.528C120.648 25.654 120.225 25.7249 119.922 25.7405C119.619 25.7568 119.372 25.764 119.18 25.764C119.02 25.764 118.837 25.7568 118.63 25.7405C118.422 25.7249 118.047 25.654 117.505 25.528L117.265 24.3005H116.787Z" fill="#2450F5"/>
<path d="M121.406 10.0157C121.215 9.60683 121.103 9.30745 121.071 9.11856C121.039 8.92966 121.023 8.70997 121.023 8.45768C121.023 8.26879 121.031 8.00175 121.047 7.65501C121.063 7.30905 121.119 6.8997 121.215 6.42746H124.901V1.04502C125.411 0.919518 125.842 0.848877 126.193 0.832575C126.544 0.817049 126.816 0.808765 127.007 0.808765C127.199 0.808765 127.478 0.817049 127.845 0.832575C128.211 0.848877 128.666 0.919518 129.209 1.04502V6.42746H133.853C133.916 6.8997 133.956 7.30905 133.972 7.65501C133.988 8.00175 133.997 8.26879 133.997 8.45768C133.997 8.70997 133.98 8.92242 133.949 9.09501C133.916 9.26838 133.805 9.57526 133.613 10.0157H129.209V19.2223C129.209 19.9468 129.297 20.5443 129.472 21.0166C129.648 21.4888 130.135 21.7248 130.933 21.7248H133.757C133.885 22.1968 133.956 22.5274 133.972 22.7163C133.988 22.9052 133.997 23.1257 133.997 23.3772C133.997 23.5351 133.988 23.7868 133.972 24.1328C133.956 24.4793 133.885 24.8726 133.757 25.313H130.98C129.832 25.313 128.866 25.2185 128.084 25.0296C127.302 24.841 126.672 24.5186 126.193 24.0619C125.715 23.606 125.38 22.9839 125.188 22.1968C124.997 21.4104 124.901 20.4191 124.901 19.2223V10.0157H121.406Z" fill="#2450F5"/>
</svg>
